<svg xmlns="http://www.w3.org/2000/svg" viewBox="0 0 512 512">
  <rect width="512" height="512" rx="112" fill="#1a2744"/>
  <!-- QR corner squares -->
  <rect x="60" y="60" width="140" height="140" rx="16" fill="none" stroke="#f59e0b" stroke-width="24"/>
  <rect x="88" y="88" width="84" height="84" rx="6" fill="#f59e0b"/>
  <rect x="312" y="60" width="140" height="140" rx="16" fill="none" stroke="#f59e0b" stroke-width="24"/>
  <rect x="340" y="88" width="84" height="84" rx="6" fill="#f59e0b"/>
  <rect x="60" y="312" width="140" height="140" rx="16" fill="none" stroke="#f59e0b" stroke-width="24"/>
  <rect x="88" y="340" width="84" height="84" rx="6" fill="#f59e0b"/>
  <!-- QR dots bottom right area -->
  <rect x="312" y="312" width="36" height="36" rx="4" fill="#2563eb"/>
  <rect x="364" y="312" width="36" height="36" rx="4" fill="#2563eb"/>
  <rect x="416" y="312" width="36" height="36" rx="4" fill="#ffffff"/>
  <rect x="312" y="364" width="36" height="36" rx="4" fill="#ffffff"/>
  <rect x="364" y="364" width="36" height="36" rx="4" fill="#2563eb"/>
  <rect x="416" y="364" width="36" height="36" rx="4" fill="#2563eb"/>
  <rect x="312" y="416" width="36" height="36" rx="4" fill="#2563eb"/>
  <rect x="364" y="416" width="36" height="36" rx="4" fill="#ffffff"/>
  <rect x="416" y="416" width="36" height="36" rx="4" fill="#2563eb"/>
</svg>